<mxfile host="app.diagrams.net" agent="Mozilla/5.0 (Windows NT 10.0; Win64; x64; rv:143.0) Gecko/20100101 Firefox/143.0" version="28.2.5">
  <diagram name="Page-1" id="LxPF3cjykFxg6f_D11xa">
    <mxGraphModel grid="1" page="1" gridSize="10" guides="1" tooltips="1" connect="1" arrows="1" fold="1" pageScale="1" pageWidth="827" pageHeight="1169" math="0" shadow="0">
      <root>
        <mxCell id="0" />
        <mxCell id="1" parent="0" />
        <mxCell id="dlgsdfF4j6GrA4h8GZ-0-3" value="V_redireccion-whattsap" style="rounded=0;whiteSpace=wrap;html=1;fillColor=#ffe6cc;strokeColor=#d79b00;" vertex="1" parent="1">
          <mxGeometry x="-600.5" y="70" width="120" height="60" as="geometry" />
        </mxCell>
        <mxCell id="dlgsdfF4j6GrA4h8GZ-0-5" value="&lt;div&gt;C_datos-whatsapp&lt;/div&gt;&lt;div&gt;(route.ts)&lt;/div&gt;" style="rounded=0;whiteSpace=wrap;html=1;fillColor=#e1d5e7;strokeColor=#9673a6;" vertex="1" parent="1">
          <mxGeometry x="-410.5" y="70" width="120" height="60" as="geometry" />
        </mxCell>
        <mxCell id="dlgsdfF4j6GrA4h8GZ-0-6" value="orders" style="rounded=0;whiteSpace=wrap;html=1;fillColor=#d5e8d4;strokeColor=#82b366;" vertex="1" parent="1">
          <mxGeometry x="69.5" y="70" width="120" height="60" as="geometry" />
        </mxCell>
        <mxCell id="dlgsdfF4j6GrA4h8GZ-0-8" value="Actor" style="shape=umlActor;verticalLabelPosition=bottom;verticalAlign=top;html=1;outlineConnect=0;" vertex="1" parent="1">
          <mxGeometry x="-730" y="70" width="30" height="60" as="geometry" />
        </mxCell>
        <mxCell id="dlgsdfF4j6GrA4h8GZ-0-9" style="edgeStyle=orthogonalEdgeStyle;rounded=0;orthogonalLoop=1;jettySize=auto;html=1;exitX=0.5;exitY=1;exitDx=0;exitDy=0;" edge="1" parent="1" source="dlgsdfF4j6GrA4h8GZ-0-3" target="dlgsdfF4j6GrA4h8GZ-0-3">
          <mxGeometry relative="1" as="geometry" />
        </mxCell>
        <mxCell id="dlgsdfF4j6GrA4h8GZ-0-12" value="" style="endArrow=none;dashed=1;html=1;dashPattern=1 3;strokeWidth=2;rounded=0;entryX=0.5;entryY=0.5;entryDx=0;entryDy=0;entryPerimeter=0;" edge="1" parent="1" target="dlgsdfF4j6GrA4h8GZ-0-8">
          <mxGeometry width="50" height="50" relative="1" as="geometry">
            <mxPoint x="-715" y="720" as="sourcePoint" />
            <mxPoint x="-693" y="200" as="targetPoint" />
          </mxGeometry>
        </mxCell>
        <mxCell id="dlgsdfF4j6GrA4h8GZ-0-26" value="" style="endArrow=none;dashed=1;html=1;dashPattern=1 3;strokeWidth=2;rounded=0;entryX=0.5;entryY=1;entryDx=0;entryDy=0;" edge="1" parent="1" target="dlgsdfF4j6GrA4h8GZ-0-5">
          <mxGeometry width="50" height="50" relative="1" as="geometry">
            <mxPoint x="-350" y="720" as="sourcePoint" />
            <mxPoint x="-110.5" y="400" as="targetPoint" />
          </mxGeometry>
        </mxCell>
        <mxCell id="dlgsdfF4j6GrA4h8GZ-0-27" value="" style="endArrow=none;dashed=1;html=1;dashPattern=1 3;strokeWidth=2;rounded=0;entryX=0.5;entryY=1;entryDx=0;entryDy=0;" edge="1" parent="1" target="dlgsdfF4j6GrA4h8GZ-0-6">
          <mxGeometry width="50" height="50" relative="1" as="geometry">
            <mxPoint x="130" y="720" as="sourcePoint" />
            <mxPoint x="199.5" y="400" as="targetPoint" />
          </mxGeometry>
        </mxCell>
        <mxCell id="dlgsdfF4j6GrA4h8GZ-0-31" value="" style="endArrow=classic;html=1;rounded=0;" edge="1" parent="1">
          <mxGeometry width="50" height="50" relative="1" as="geometry">
            <mxPoint x="-710" y="190" as="sourcePoint" />
            <mxPoint x="-540" y="190" as="targetPoint" />
          </mxGeometry>
        </mxCell>
        <mxCell id="dlgsdfF4j6GrA4h8GZ-0-32" value="Clic en confirmar pedido" style="edgeLabel;html=1;align=center;verticalAlign=middle;resizable=0;points=[];" connectable="0" vertex="1" parent="dlgsdfF4j6GrA4h8GZ-0-31">
          <mxGeometry x="-0.1758" y="4" relative="1" as="geometry">
            <mxPoint x="19" y="-6" as="offset" />
          </mxGeometry>
        </mxCell>
        <mxCell id="dlgsdfF4j6GrA4h8GZ-0-40" value="" style="endArrow=classic;html=1;rounded=0;" edge="1" parent="1">
          <mxGeometry width="50" height="50" relative="1" as="geometry">
            <mxPoint x="-540.5" y="240" as="sourcePoint" />
            <mxPoint x="-350.5" y="240" as="targetPoint" />
          </mxGeometry>
        </mxCell>
        <mxCell id="dlgsdfF4j6GrA4h8GZ-0-41" value="GET/api/datos-whatsapp(order_id)" style="text;html=1;align=center;verticalAlign=middle;resizable=0;points=[];autosize=1;strokeColor=none;fillColor=none;" vertex="1" parent="1">
          <mxGeometry x="-540.5" y="210" width="210" height="30" as="geometry" />
        </mxCell>
        <mxCell id="dlgsdfF4j6GrA4h8GZ-0-42" value="" style="endArrow=classic;html=1;rounded=0;" edge="1" parent="1">
          <mxGeometry width="50" height="50" relative="1" as="geometry">
            <mxPoint x="-350.5" y="280" as="sourcePoint" />
            <mxPoint x="129.5" y="280" as="targetPoint" />
          </mxGeometry>
        </mxCell>
        <mxCell id="dlgsdfF4j6GrA4h8GZ-0-43" value="&lt;div&gt;SELECT * FROM orders WHERE id = ?, orderId&lt;/div&gt;" style="text;html=1;align=center;verticalAlign=middle;resizable=0;points=[];autosize=1;strokeColor=none;fillColor=none;" vertex="1" parent="1">
          <mxGeometry x="-350.5" y="240" width="280" height="30" as="geometry" />
        </mxCell>
        <mxCell id="dlgsdfF4j6GrA4h8GZ-0-44" value="" style="endArrow=classic;html=1;rounded=0;dashed=1;" edge="1" parent="1">
          <mxGeometry width="50" height="50" relative="1" as="geometry">
            <mxPoint x="-10.5" y="320" as="sourcePoint" />
            <mxPoint x="-350.5" y="320" as="targetPoint" />
          </mxGeometry>
        </mxCell>
        <mxCell id="dlgsdfF4j6GrA4h8GZ-0-45" value="id, first_name, last_name, address, city, region, postal_code, payment_method, total" style="text;html=1;align=center;verticalAlign=middle;resizable=0;points=[];autosize=1;strokeColor=none;fillColor=none;" vertex="1" parent="1">
          <mxGeometry x="-340.5" y="290" width="470" height="30" as="geometry" />
        </mxCell>
        <mxCell id="dlgsdfF4j6GrA4h8GZ-0-46" value="" style="endArrow=classic;html=1;rounded=0;" edge="1" parent="1">
          <mxGeometry width="50" height="50" relative="1" as="geometry">
            <mxPoint x="-340.5" y="370" as="sourcePoint" />
            <mxPoint x="129.5" y="370" as="targetPoint" />
          </mxGeometry>
        </mxCell>
        <mxCell id="dlgsdfF4j6GrA4h8GZ-0-48" value="&lt;div&gt;SELECT * FROM orderItems WHERE order_id = ?, orderId&lt;/div&gt;" style="text;html=1;align=center;verticalAlign=middle;resizable=0;points=[];autosize=1;strokeColor=none;fillColor=none;" vertex="1" parent="1">
          <mxGeometry x="-340.5" y="340" width="340" height="30" as="geometry" />
        </mxCell>
        <mxCell id="dlgsdfF4j6GrA4h8GZ-0-49" value="" style="endArrow=classic;html=1;rounded=0;dashed=1;" edge="1" parent="1">
          <mxGeometry width="50" height="50" relative="1" as="geometry">
            <mxPoint x="129.5" y="410" as="sourcePoint" />
            <mxPoint x="-350.5" y="410" as="targetPoint" />
          </mxGeometry>
        </mxCell>
        <mxCell id="dlgsdfF4j6GrA4h8GZ-0-50" value="product_name, quantity" style="text;html=1;align=center;verticalAlign=middle;resizable=0;points=[];autosize=1;strokeColor=none;fillColor=none;" vertex="1" parent="1">
          <mxGeometry x="-345.5" y="380" width="150" height="30" as="geometry" />
        </mxCell>
        <mxCell id="dlgsdfF4j6GrA4h8GZ-0-52" value="" style="endArrow=classic;html=1;rounded=0;" edge="1" parent="1">
          <mxGeometry width="50" height="50" relative="1" as="geometry">
            <mxPoint x="-350.5" y="440" as="sourcePoint" />
            <mxPoint x="-540.5" y="440" as="targetPoint" />
          </mxGeometry>
        </mxCell>
        <mxCell id="dlgsdfF4j6GrA4h8GZ-0-53" value="{ order, orderItems }" style="text;html=1;align=center;verticalAlign=middle;resizable=0;points=[];autosize=1;strokeColor=none;fillColor=none;" vertex="1" parent="1">
          <mxGeometry x="-515.5" y="410" width="130" height="30" as="geometry" />
        </mxCell>
        <mxCell id="dlgsdfF4j6GrA4h8GZ-0-54" value="" style="endArrow=classic;html=1;rounded=0;" edge="1" parent="1">
          <mxGeometry width="50" height="50" relative="1" as="geometry">
            <mxPoint x="-540" y="480" as="sourcePoint" />
            <mxPoint x="-720" y="480" as="targetPoint" />
          </mxGeometry>
        </mxCell>
        <mxCell id="dlgsdfF4j6GrA4h8GZ-0-55" value="Muestra botón de redirección" style="text;html=1;align=center;verticalAlign=middle;resizable=0;points=[];autosize=1;strokeColor=none;fillColor=none;" vertex="1" parent="1">
          <mxGeometry x="-710" y="450" width="180" height="30" as="geometry" />
        </mxCell>
        <mxCell id="dlgsdfF4j6GrA4h8GZ-0-56" value="" style="endArrow=none;dashed=1;html=1;dashPattern=1 3;strokeWidth=2;rounded=0;entryX=0.5;entryY=1;entryDx=0;entryDy=0;" edge="1" parent="1" target="dlgsdfF4j6GrA4h8GZ-0-3">
          <mxGeometry width="50" height="50" relative="1" as="geometry">
            <mxPoint x="-540" y="720" as="sourcePoint" />
            <mxPoint x="-480" y="490" as="targetPoint" />
          </mxGeometry>
        </mxCell>
      </root>
    </mxGraphModel>
  </diagram>
</mxfile>
